<?xml version="1.0" standalone="no"?>
<!DOCTYPE svg PUBLIC "-//W3C//DTD SVG 20010904//EN"
 "http://www.w3.org/TR/2001/REC-SVG-20010904/DTD/svg10.dtd">
<svg version="1.0" xmlns="http://www.w3.org/2000/svg"
 width="512.000000pt" height="512.000000pt" viewBox="0 0 512.000000 512.000000"
 preserveAspectRatio="xMidYMid meet">

<g transform="translate(0.000000,512.000000) scale(0.100000,-0.100000)"
fill="#000000" stroke="none">
<path d="M2455 5109 c-30 -17 -55 -51 -55 -75 0 -19 -10 -23 -102 -37 -381
-59 -716 -264 -945 -577 -181 -247 -273 -549 -273 -894 l0 -92 -36 -35 c-48
-46 -94 -117 -94 -145 0 -36 36 -54 111 -54 l66 0 7 -102 c17 -272 128 -582
305 -850 l71 -107 0 -186 0 -186 -43 -42 c-23 -24 -64 -58 -91 -76 -63 -44
-236 -129 -361 -179 -55 -22 -145 -61 -200 -87 -55 -26 -173 -71 -262 -101
-242 -80 -343 -154 -427 -314 -62 -118 -66 -150 -66 -583 l0 -387 2148 2 2147
3 88 28 c245 76 425 229 532 450 69 144 80 197 79 377 0 146 -2 160 -32 250
-76 230 -237 412 -455 516 -119 56 -213 76 -357 76 -148 0 -238 -20 -372 -84
l-87 -41 -70 42 c-38 22 -94 63 -123 90 l-53 49 -5 188 -6 189 74 115 c181
281 284 571 307 863 l7 87 67 0 c40 0 75 5 85 13 40 29 13 96 -73 185 l-41 42
0 138 c0 398 -138 732 -419 1013 -240 239 -505 369 -843 414 -41 5 -47 9 -53
34 -13 59 -99 99 -150 70z m305 -338 c228 -52 420 -159 591 -330 205 -205 319
-444 351 -734 6 -59 9 -109 7 -111 -2 -3 -40 13 -85 34 -587 280 -1635 282
-2231 4 l-93 -43 0 58 c0 32 7 98 15 147 89 505 495 905 1005 989 113 19 326
12 440 -14z m897 -1668 c-11 -186 -93 -437 -204 -631 -123 -212 -313 -430
-495 -567 -178 -134 -381 -216 -497 -199 -173 25 -398 161 -596 359 -301 302
-487 679 -520 1058 l-7 77 1162 0 1163 0 -6 -97z m-1701 -1399 c109 -77 232
-143 339 -180 70 -24 95 -28 200 -28 99 -1 133 3 195 23 159 50 346 160 505
300 l80 70 5 -82 c4 -64 11 -94 33 -135 l28 -53 -27 -34 c-63 -83 -253 -200
-396 -244 -338 -103 -761 -69 -1003 82 -80 49 -141 104 -189 167 l-44 60 19
39 c14 30 19 62 19 126 l0 86 74 -66 c40 -37 113 -96 162 -131z m-211 -430
c130 -92 324 -165 520 -195 115 -17 390 -15 505 4 275 47 490 149 662 315 l76
74 29 -18 c15 -10 30 -19 32 -21 2 -1 -18 -31 -43 -65 -61 -81 -120 -203 -147
-304 -30 -112 -30 -306 0 -419 38 -143 108 -270 204 -372 l50 -53 -1682 0
-1683 0 4 278 c5 321 11 350 98 445 58 64 118 98 225 127 91 25 234 80 315
120 30 15 114 51 185 80 146 59 293 131 375 183 l54 35 79 -84 c44 -47 108
-105 142 -130z m2530 -446 c53 -47 49 -134 -8 -168 -18 -11 -42 -20 -55 -20
-64 0 -120 69 -107 131 16 70 116 104 170 57z m-438 -164 l62 -6 26 -53 c28
-59 82 -112 147 -147 36 -19 58 -23 138 -23 80 0 102 4 138 23 65 35 119 88
147 147 l26 53 62 6 c34 4 104 15 155 25 50 10 92 14 92 9 0 -23 -56 -148 -87
-195 -56 -85 -162 -177 -255 -222 -106 -50 -171 -65 -283 -64 -249 2 -468 142
-574 366 -16 34 -32 76 -35 93 l-7 31 93 -18 c51 -10 121 -21 155 -25z"/>
<path d="M2421 4575 c-112 -32 -189 -106 -222 -217 -26 -86 -20 -153 23 -238
57 -115 168 -177 302 -168 116 8 209 69 264 173 23 43 27 62 27 140 0 75 -4
98 -24 139 -68 138 -227 211 -370 171z m123 -215 c33 -12 58 -52 58 -94 0 -73
-68 -121 -134 -93 -44 18 -59 38 -65 86 -5 36 -2 44 30 76 36 36 65 43 111 25z"/>
</g>
</svg>
